<?xml version="1.0" encoding="UTF-8"?><svg id="Layer_2" xmlns="http://www.w3.org/2000/svg" viewBox="0 0 46.11 46.11"><defs><style>.cls-1{fill:#000;opacity:0;}.cls-1,.cls-2{stroke-width:0px;}.cls-2{fill:#bba16b;}</style></defs><g id="Layer_1-2"><rect class="cls-1" width="46.11" height="46.11"/><path class="cls-2" d="M19.48,26.49c.16-.38-.17-.79-.58-.71l-5.66,1.14c-.41.08-.75-.34-.57-.72L21.56,6.98c.05-.12.15-.21.26-.26l4.96-2.23h-15.18L1.3,43.77h10.2l7.98-17.28Z"/><path class="cls-2" d="M32.74,2.34l-6.7,14.56c-.21.39.14.85.57.75l7.79-1.89c.48-.12.84.45.52.83l-14.26,17.08h4.42c7.66,0,16.24-3.15,19.02-13.63,2.62-9.87-2.24-14.94-10.57-15.5l-.8-2.21Z"/></g></svg>