<?xml version="1.0" encoding="UTF-8"?><svg id="Layer_2" xmlns="http://www.w3.org/2000/svg" viewBox="0 0 490.7 124.3"><defs><style>.cls-1{fill:#bba16b;}</style></defs><g id="Layer_2-2"><g id="Layer_2-2"><g id="Layer_1-2"><path class="cls-1" d="M54.3,72.1c.5-1.1-.5-2.4-1.7-2.1l-16.9,3.4c-1.2.2-2.2-1-1.7-2.2L60.5,13.9c.2-.4.4-.6.8-.8l14.8-6.7H30.8L0,123.8h30.5l23.8-51.6v-.1Z"/><path class="cls-1" d="M93.9,0l-20,43.5c-.6,1.2.4,2.5,1.7,2.2l23.3-5.6c1.4-.3,2.5,1.3,1.6,2.5l-42.6,51h13.2c22.9,0,48.5-9.4,56.8-40.7,7.8-29.5-6.7-44.6-31.6-46.3L93.9,0h0Z"/><path class="cls-1" d="M147.9,6.9h97l-8.3,31.3h-60.5l-3.9,14.5h55.4l-6.8,25.7h-55.3l-3.9,14.6h60.7l-8.3,31.3h-97L147.9,6.9Z"/><path class="cls-1" d="M254.5,6.9h66.4c26.8,0,43.9,12.1,35.9,42.4-5.2,20-19.2,32.4-35.5,38.5l18.1,36.4h-42.9l-12.3-28.8h-16.8l-7.6,28.8h-36.3L254.5,6.9ZM282.5,38.2l-7,26.9h26.8c8.8,0,15.1-4.1,17.5-13.1,2.6-10.2-3.1-13.8-10.4-13.8h-26.9Z"/><path class="cls-1" d="M377,6.9h36.3l-11.4,43.3h8.6l39.5-43.3h40.7l-53.6,56,25.9,61.3h-42.2l-17.8-44.6h-8.8l-11.7,44.6h-36.3l30.9-117.3s-.1,0-.1,0Z"/></g></g></g></svg>